<svg xmlns="http://www.w3.org/2000/svg" version="1.1" width="250" height="250" shape-rendering="crispEdges"><rect width="250" height="250" x="0" y="0" fill="#F7931A" /><g transform="translate(27 76)"><rect width="7" height="7" x="7" y="7" fill="#FFFFFF" /><rect width="7" height="7" x="21" y="7" fill="#FFFFFF" /><rect width="7" height="7" x="35" y="7" fill="#FFFFFF" /><rect width="7" height="7" x="49" y="7" fill="#FFFFFF" /><rect width="7" height="7" x="63" y="7" fill="#FFFFFF" /><rect width="7" height="7" x="77" y="7" fill="#FFFFFF" /><rect width="7" height="7" x="91" y="7" fill="#FFFFFF" /><rect width="7" height="7" x="105" y="7" fill="#FFFFFF" /><rect width="7" height="7" x="119" y="7" fill="#FFFFFF" /><rect width="7" height="7" x="133" y="7" fill="#FFFFFF" /><rect width="7" height="7" x="147" y="7" fill="#FFFFFF" /><rect width="7" height="7" x="161" y="7" fill="#FFFFFF" /><rect width="7" height="7" x="175" y="7" fill="#FFFFFF" /><rect width="7" height="7" x="7" y="14" fill="#FFFFFF" /><rect width="14" height="7" x="21" y="14" fill="#FFFFFF" /><rect width="14" height="7" x="42" y="14" fill="#FFFFFF" /><rect width="7" height="7" x="63" y="14" fill="#FFFFFF" /><rect width="21" height="7" x="77" y="14" fill="#FFFFFF" /><rect width="14" height="7" x="105" y="14" fill="#FFFFFF" /><rect width="14" height="7" x="133" y="14" fill="#FFFFFF" /><rect width="14" height="7" x="175" y="14" fill="#FFFFFF" /><rect width="14" height="7" x="7" y="21" fill="#FFFFFF" /><rect width="7" height="7" x="28" y="21" fill="#FFFFFF" /><rect width="7" height="7" x="42" y="21" fill="#FFFFFF" /><rect width="7" height="7" x="70" y="21" fill="#FFFFFF" /><rect width="7" height="7" x="91" y="21" fill="#FFFFFF" /><rect width="14" height="7" x="126" y="21" fill="#FFFFFF" /><rect width="21" height="7" x="154" y="21" fill="#FFFFFF" /><rect width="7" height="7" x="7" y="28" fill="#FFFFFF" /><rect width="7" height="7" x="21" y="28" fill="#FFFFFF" /><rect width="7" height="7" x="35" y="28" fill="#FFFFFF" /><rect width="21" height="7" x="63" y="28" fill="#FFFFFF" /><rect width="7" height="7" x="112" y="28" fill="#FFFFFF" /><rect width="14" height="7" x="154" y="28" fill="#FFFFFF" /><rect width="14" height="7" x="175" y="28" fill="#FFFFFF" /><rect width="7" height="7" x="7" y="35" fill="#FFFFFF" /><rect width="21" height="7" x="28" y="35" fill="#FFFFFF" /><rect width="7" height="7" x="84" y="35" fill="#FFFFFF" /><rect width="49" height="7" x="105" y="35" fill="#FFFFFF" /><rect width="21" height="7" x="7" y="42" fill="#FFFFFF" /><rect width="7" height="7" x="35" y="42" fill="#FFFFFF" /><rect width="7" height="7" x="56" y="42" fill="#FFFFFF" /><rect width="7" height="7" x="70" y="42" fill="#FFFFFF" /><rect width="7" height="7" x="84" y="42" fill="#FFFFFF" /><rect width="14" height="7" x="98" y="42" fill="#FFFFFF" /><rect width="14" height="7" x="119" y="42" fill="#FFFFFF" /><rect width="7" height="7" x="161" y="42" fill="#FFFFFF" /><rect width="14" height="7" x="175" y="42" fill="#FFFFFF" /><rect width="42" height="7" x="7" y="49" fill="#FFFFFF" /><rect width="35" height="7" x="63" y="49" fill="#FFFFFF" /><rect width="7" height="7" x="105" y="49" fill="#FFFFFF" /><rect width="14" height="7" x="119" y="49" fill="#FFFFFF" /><rect width="7" height="7" x="140" y="49" fill="#FFFFFF" /><rect width="7" height="7" x="154" y="49" fill="#FFFFFF" /><rect width="7" height="7" x="7" y="56" fill="#FFFFFF" /><rect width="7" height="7" x="35" y="56" fill="#FFFFFF" /><rect width="14" height="7" x="56" y="56" fill="#FFFFFF" /><rect width="14" height="7" x="77" y="56" fill="#FFFFFF" /><rect width="35" height="7" x="98" y="56" fill="#FFFFFF" /><rect width="21" height="7" x="140" y="56" fill="#FFFFFF" /><rect width="21" height="7" x="168" y="56" fill="#FFFFFF" /><rect width="14" height="7" x="7" y="63" fill="#FFFFFF" /><rect width="14" height="7" x="28" y="63" fill="#FFFFFF" /><rect width="7" height="7" x="63" y="63" fill="#FFFFFF" /><rect width="21" height="7" x="77" y="63" fill="#FFFFFF" /><rect width="14" height="7" x="105" y="63" fill="#FFFFFF" /><rect width="7" height="7" x="140" y="63" fill="#FFFFFF" /><rect width="7" height="7" x="161" y="63" fill="#FFFFFF" /><rect width="7" height="7" x="175" y="63" fill="#FFFFFF" /><rect width="7" height="7" x="7" y="70" fill="#FFFFFF" /><rect width="7" height="7" x="21" y="70" fill="#FFFFFF" /><rect width="28" height="7" x="35" y="70" fill="#FFFFFF" /><rect width="21" height="7" x="77" y="70" fill="#FFFFFF" /><rect width="7" height="7" x="105" y="70" fill="#FFFFFF" /><rect width="21" height="7" x="119" y="70" fill="#FFFFFF" /><rect width="21" height="7" x="147" y="70" fill="#FFFFFF" /><rect width="14" height="7" x="175" y="70" fill="#FFFFFF" /><rect width="21" height="7" x="7" y="77" fill="#FFFFFF" /><rect width="7" height="7" x="42" y="77" fill="#FFFFFF" /><rect width="14" height="7" x="63" y="77" fill="#FFFFFF" /><rect width="7" height="7" x="84" y="77" fill="#FFFFFF" /><rect width="7" height="7" x="98" y="77" fill="#FFFFFF" /><rect width="21" height="7" x="112" y="77" fill="#FFFFFF" /><rect width="7" height="7" x="161" y="77" fill="#FFFFFF" /><rect width="7" height="7" x="175" y="77" fill="#FFFFFF" /><rect width="182" height="7" x="7" y="84" fill="#FFFFFF" /><g transform="translate(98 119)"><text text-anchor="middle" lengthAdjust="spacingAndGlyphs" style="font-family: 'Courier New'; font-size: 24px;" fill="#FFFFFF">Bitgener Demo</text></g></g></svg>